<?xml version="1.0" encoding="UTF-8"?>
<svg xmlns="http://www.w3.org/2000/svg" xmlns:xlink="http://www.w3.org/1999/xlink" width="300px" height="372px" viewBox="0 0 300 371" version="1.1">
<g id="surface1">
<path style=" stroke:none;fill-rule:nonzero;fill:rgb(97.254902%,70.980392%,29.411765%);fill-opacity:1;" d="M 246.703125 330.816406 C 245.605469 351.257812 194.835938 371 155.289062 371 C 113.875 370 65.96875 348.332031 66.003906 333.476562 C 66.003906 333.476562 68.171875 233.664062 69.171875 178.660156 C 70.160156 123.910156 64.113281 51.847656 63.863281 43.910156 C 69.578125 17.113281 113.710938 0.757812 156.578125 0 C 197.769531 0 246.339844 25.429688 245.234375 44.53125 C 245.234375 44.53125 239.167969 135.144531 241.066406 184.210938 Z M 246.703125 330.816406 "/>
<path style=" stroke:none;fill-rule:nonzero;fill:rgb(95.686275%,60.392157%,25.490196%);fill-opacity:1;" d="M 246.703125 330.816406 C 245.605469 351.257812 194.835938 371 155.289062 371 C 122.453125 370.210938 85.53125 356.425781 71.675781 343.363281 C 140.273438 334.628906 155.289062 34.238281 156.578125 0 C 197.769531 0 246.339844 25.429688 245.234375 44.53125 C 245.234375 44.53125 239.167969 135.144531 241.066406 184.210938 Z M 246.703125 330.816406 "/>
<path style=" stroke:none;fill-rule:nonzero;fill:rgb(100%,100%,100%);fill-opacity:1;" d="M 126.523438 105.695312 C 135.417969 105.695312 142.625 98.496094 142.625 89.617188 C 142.625 80.734375 135.417969 73.535156 126.523438 73.535156 C 117.632812 73.535156 110.421875 80.734375 110.421875 89.617188 C 110.421875 98.496094 117.632812 105.695312 126.523438 105.695312 Z M 126.523438 105.695312 "/>
<path style=" stroke:none;fill-rule:nonzero;fill:rgb(10.980392%,10.196078%,10.588235%);fill-opacity:1;" d="M 136.898438 96.085938 C 136.898438 97.960938 136.339844 99.796875 135.296875 101.359375 C 134.253906 102.917969 132.769531 104.136719 131.03125 104.855469 C 129.296875 105.574219 127.386719 105.761719 125.542969 105.394531 C 123.699219 105.03125 122.003906 104.125 120.675781 102.800781 C 119.34375 101.472656 118.4375 99.78125 118.070312 97.941406 C 117.703125 96.101562 117.890625 94.191406 118.609375 92.457031 C 119.328125 90.722656 120.542969 89.242188 122.105469 88.199219 C 123.667969 87.152344 125.507812 86.59375 127.386719 86.59375 C 129.660156 86.59375 126.90625 91.484375 128.542969 92.804688 C 129.679688 93.71875 135.410156 90.789062 136.027344 92.125 C 136.601562 93.367188 136.898438 94.71875 136.898438 96.085938 Z M 136.898438 96.085938 "/>
<path style=" stroke:none;fill-rule:nonzero;fill:rgb(100%,100%,100%);fill-opacity:1;" d="M 131.46875 100.324219 C 132.808594 100.324219 133.898438 99.234375 133.898438 97.894531 C 133.898438 96.554688 132.808594 95.46875 131.46875 95.46875 C 130.125 95.46875 129.039062 96.554688 129.039062 97.894531 C 129.039062 99.234375 130.125 100.324219 131.46875 100.324219 Z M 131.46875 100.324219 "/>
<path style=" stroke:none;fill-rule:nonzero;fill:rgb(0%,0%,0%);fill-opacity:1;" d="M 224.351562 89.84375 C 211.363281 78.15625 203.804688 83.285156 198.433594 95.164062 C 206.441406 92.714844 213.15625 93.09375 217.265625 95.984375 C 214.964844 92.5 212.644531 90.539062 210.363281 89.722656 C 215.625 88.242188 220.269531 88.3125 224.351562 89.84375 Z M 224.351562 89.84375 "/>
<path style=" stroke:none;fill-rule:nonzero;fill:rgb(10.980392%,10.196078%,10.588235%);fill-opacity:1;" d="M 102.492188 71.367188 C 106.179688 58.71875 113.535156 49.246094 132.902344 50.164062 C 138.34375 50.445312 137.972656 58.960938 133.335938 58.714844 C 121.878906 57.824219 111.328125 60.851562 102.492188 71.367188 Z M 102.492188 71.367188 "/>
<path style=" stroke:none;fill-rule:nonzero;fill:rgb(10.980392%,10.196078%,10.588235%);fill-opacity:1;" d="M 234.914062 81.972656 C 234.511719 68.808594 229.75 57.796875 210.792969 53.847656 C 205.453125 52.757812 203.675781 61.09375 208.226562 62.023438 C 219.53125 64.015625 228.992188 69.582031 234.914062 81.972656 Z M 234.914062 81.972656 "/>
<path style=" stroke:none;fill-rule:nonzero;fill:rgb(35.294118%,7.058824%,7.45098%);fill-opacity:1;" d="M 153.8125 115.589844 C 165.609375 121.042969 177.003906 121.914062 187.792969 115.855469 C 187.792969 133.890625 182.066406 146.597656 170.804688 146.597656 C 157.8125 146.140625 151.617188 133.292969 153.8125 115.589844 Z M 153.8125 115.589844 "/>
<path style=" stroke:none;fill-rule:nonzero;fill:rgb(88.235294%,8.235294%,10.980392%);fill-opacity:1;" d="M 186.761719 128.070312 C 184.648438 139.363281 179.300781 146.601562 170.804688 146.601562 C 166.402344 146.441406 162.78125 144.863281 160 142.15625 C 159.988281 132.226562 172.40625 125.507812 186.761719 128.070312 Z M 186.761719 128.070312 "/>
<path style=" stroke:none;fill-rule:nonzero;fill:rgb(14.509804%,46.666667%,61.176471%);fill-opacity:1;" d="M 228.273438 188.015625 C 225.078125 183.890625 229.742188 177.234375 234.40625 179.5 C 256.394531 190.878906 269.964844 209.191406 273.453125 235.789062 L 263.597656 240.710938 C 261.3125 219.164062 253.019531 200.121094 228.273438 188.015625 Z M 228.273438 188.015625 "/>
<path style=" stroke:none;fill-rule:nonzero;fill:rgb(14.509804%,46.666667%,61.176471%);fill-opacity:1;" d="M 262.976562 235.945312 C 261.28125 236.675781 259.144531 249.140625 251.128906 259.273438 C 249.5625 261.273438 250.859375 263.367188 254.0625 262.46875 L 260.390625 258.890625 C 260.878906 258.664062 261.824219 259.269531 262.085938 259.707031 C 266.691406 263.871094 270.277344 272.464844 273.714844 281.699219 C 274.898438 283.359375 279.0625 282.671875 278.113281 278.90625 L 274.78125 267.257812 C 274.667969 266.039062 274.632812 266.011719 275.652344 266.824219 L 284.578125 277.425781 C 285.859375 278.488281 288.105469 277.207031 287.441406 275.230469 L 282.109375 263.652344 C 282.046875 263.019531 282.277344 262.621094 283.207031 263.273438 L 292.171875 270.757812 C 294.300781 272.195312 296.210938 269.914062 294.703125 267.628906 L 288.238281 256.582031 C 288.074219 255.964844 288.308594 255.671875 289.378906 256.050781 L 297.039062 258.789062 C 299.285156 259.777344 301.191406 257.890625 299.105469 255.984375 C 289.574219 247.65625 275.125 233.511719 273.246094 234.265625 Z M 262.976562 235.945312 "/>
<path style=" stroke:none;fill-rule:nonzero;fill:rgb(14.509804%,46.666667%,61.176471%);fill-opacity:1;" d="M 18.25 152.578125 C 7.890625 147.398438 1 142.0625 0.0546875 136.46875 C -0.273438 134.550781 0.71875 133.574219 2.667969 133.28125 C 2.539062 129.277344 3.03125 125.65625 6.066406 123.570312 C 6.796875 120.464844 8.167969 117.980469 11.550781 117.4375 C 9.476562 111.210938 7.136719 104.59375 6.933594 100.980469 C 6.886719 98.378906 8.222656 97.714844 10.925781 98.957031 C 11.558594 99.296875 16.5 108.488281 21.261719 117.320312 C 22.929688 120.539062 26.023438 126.300781 27.355469 125.582031 C 28.875 125.113281 28.898438 123.664062 28.117188 121.6875 C 23.988281 120.550781 21.171875 118.046875 23.003906 115.6875 C 27.078125 117.371094 31.003906 115.285156 32.710938 118.082031 C 39.800781 127.035156 39.957031 136.796875 33.652344 147.308594 C 29.839844 151.914062 21.457031 154.125 18.25 152.578125 Z M 18.25 152.578125 "/>
<path style=" stroke:none;fill-rule:nonzero;fill:rgb(14.509804%,46.666667%,61.176471%);fill-opacity:1;" d="M 74.152344 179.679688 C 79.675781 178.839844 81.597656 188.457031 75.027344 189.882812 C 51.722656 191.355469 31.808594 182.921875 19.792969 152.269531 L 28.84375 150.421875 C 35.992188 168.101562 49.566406 182.960938 74.152344 179.679688 Z M 74.152344 179.679688 "/>
</g>
</svg>
