<svg id="Calque_1" data-name="Calque 1" xmlns="http://www.w3.org/2000/svg" viewBox="0 0 551.11 551.11"><defs><style>.cls-1{fill:#0871b8;}</style></defs><path class="cls-1" d="M350,305.18q0,113.22.13,226.45c0,4.67-1.25,6.66-5.84,7.76-77.83,18.69-151,7.64-218-36.37C64.75,462.66,25.93,405.76,9.53,334c-9.2-40.25-8.41-80.6.72-120.83A21.45,21.45,0,0,1,11,210.6a1.43,1.43,0,0,1,1.35-1H29.86a1.43,1.43,0,0,1,1.39,1.74c-20.53,94.49.64,177.46,70.29,245.77,49,48.1,109.19,70.43,178.53,70.47a1.45,1.45,0,0,0,1.44-1.44v-278a1.43,1.43,0,0,1,1.43-1.43H440.11a1.44,1.44,0,0,1,1.44,1.43v49.67a1.44,1.44,0,0,1-1.44,1.43H351.38a1.43,1.43,0,0,0-1.43,1.43Z"/><path class="cls-1" d="M371.76,529.71a1.43,1.43,0,0,1-1.87-1.37c0-5.57-.17-11.08.17-16.56.08-1.42,1.9-3.34,3.38-4a246.52,246.52,0,0,0,61.71-37.41c49.59-41.38,81.21-93.7,89.44-157.86,13.35-104-24.44-186.62-109.89-247-32.63-23-69.61-36.43-109.43-40.22-98.91-9.42-177.6,26.83-236.6,106.47l0,0a1.43,1.43,0,0,0,1.17,2.26H280.93a1.43,1.43,0,0,1,1.4,1.72,3.79,3.79,0,0,1-.32,1c-8.91,16.56-17.79,33.13-26.91,49.58a6.63,6.63,0,0,1-4.85,2.91q-115,.22-230,.13l-.72,0a1.43,1.43,0,0,1-1.26-1.84C45.69,97.18,146.66-5.61,293.54,3.57c138.88,8.69,248.27,121.66,254.29,259.16C554.09,405.84,454.12,502.4,371.76,529.71Z"/><path class="cls-1" d="M269.65,362.69v51.88a1.44,1.44,0,0,1-1.44,1.43H99a1.43,1.43,0,0,1-1.43-1.43V248.31A1.43,1.43,0,0,1,99,246.88H256.14a1.44,1.44,0,0,1,1.44,1.43V297.9a1.44,1.44,0,0,1-1.44,1.43H167.63a1.43,1.43,0,0,0-1.43,1.43v59.07a1.43,1.43,0,0,0,1.43,1.43H268.21A1.44,1.44,0,0,1,269.65,362.69Z"/><path class="cls-1" d="M453.69,136v51.79a1.44,1.44,0,0,1-1.44,1.43H272.09a1.43,1.43,0,0,1-1.27-2.09c1-2,2-3.85,3-5.67,7.91-14.62,15.78-29.27,23.89-43.79a6.65,6.65,0,0,1,4.76-3.09q74.19-.24,148.37-.11c.49,0,1,.05,1.58.11A1.43,1.43,0,0,1,453.69,136Z"/></svg>